<svg xmlns="http://www.w3.org/2000/svg" viewBox="0 0 19 21"><path fill-rule="evenodd" fill="currentColor" d="M15.578,20.053 L3.422,20.053 C1.985,20.053 0.817,18.884 0.817,17.448 L0.817,7.896 C0.817,7.628 0.941,7.375 1.152,7.211 L8.967,1.133 C9.280,0.889 9.719,0.889 10.033,1.133 L17.848,7.211 C18.059,7.375 18.183,7.628 18.183,7.896 L18.183,17.448 C18.183,18.884 17.015,20.053 15.578,20.053 ZM7.763,18.316 L11.237,18.316 L11.237,11.370 L7.763,11.370 L7.763,18.316 ZM16.446,8.322 L9.500,2.919 L2.553,8.322 L2.553,17.448 C2.553,17.927 2.943,18.316 3.422,18.316 L6.027,18.316 L6.027,10.501 C6.027,10.022 6.415,9.633 6.895,9.633 L12.105,9.633 C12.585,9.633 12.973,10.022 12.973,10.501 L12.973,18.316 L15.578,18.316 C16.057,18.316 16.446,17.927 16.446,17.448 L16.446,8.322 Z"/></svg>