<svg xmlns="http://www.w3.org/2000/svg" viewBox="0 0 813 125"><g><g><g><path d="m67.11,8.22c0.54,0.86 1.05,2.02 1.53,3.47c0.48,1.45 0.73,3.04 0.73,4.76c0,2.91 -0.67,5.11 -2.02,6.62c-1.35,1.51 -3.15,2.26 -5.41,2.26l-38.91,0l0,25.67l38.58,0c0.54,0.86 1.05,1.99 1.53,3.39c0.48,1.4 0.73,2.96 0.73,4.68c0,2.91 -0.67,5.09 -2.02,6.54c-1.35,1.45 -3.15,2.18 -5.41,2.18l-33.09,0l0,42.29c-0.97,0.21 -2.34,0.48 -4.12,0.81c-1.78,0.32 -3.63,0.48 -5.57,0.48c-4.09,0 -7,-0.76 -8.72,-2.26c-1.72,-1.5 -2.58,-4.04 -2.58,-7.59l0,-82.17c0,-3.44 0.99,-6.16 2.99,-8.15c1.99,-1.99 4.71,-2.99 8.15,-2.99l53.61,0l0,0.01z" fill="#FFD200"/><path d="m162.23,23.39c0,2.15 -0.59,4.01 -1.77,5.57c-1.19,1.56 -2.53,2.77 -4.04,3.63c-2.8,-1.83 -5.92,-3.49 -9.36,-5c-3.45,-1.51 -7.7,-2.26 -12.75,-2.26c-9.15,0 -16.44,2.96 -21.87,8.88c-5.44,5.92 -8.15,14.48 -8.15,25.67c0,11.41 2.8,19.96 8.4,25.67c5.59,5.71 13.13,8.56 22.6,8.56c4.95,0 9.23,-0.67 12.83,-2.02c3.61,-1.34 6.81,-2.93 9.6,-4.76c1.51,0.97 2.75,2.29 3.71,3.96c0.97,1.67 1.45,3.58 1.45,5.73c0,1.83 -0.48,3.5 -1.45,5c-0.97,1.51 -2.58,2.85 -4.84,4.04c-2.15,1.29 -5.19,2.5 -9.12,3.63c-3.93,1.13 -8.8,1.69 -14.61,1.69c-7.11,0 -13.7,-1.05 -19.78,-3.15c-6.08,-2.1 -11.38,-5.27 -15.9,-9.52c-4.52,-4.25 -8.07,-9.61 -10.65,-16.06c-2.58,-6.46 -3.88,-14.04 -3.88,-22.76c0,-8.39 1.29,-15.79 3.88,-22.2s6.11,-11.79 10.57,-16.14s9.68,-7.67 15.66,-9.93c5.97,-2.26 12.3,-3.39 18.97,-3.39c4.63,0 8.82,0.4 12.59,1.21c3.76,0.81 6.99,1.91 9.68,3.31c2.69,1.4 4.73,3.01 6.13,4.84c1.4,1.82 2.1,3.76 2.1,5.8z" fill="#FFD200"/><path d="m257.15,35.66c0,4.84 -1.27,9.04 -3.8,12.59c-2.53,3.55 -6.32,6.4 -11.38,8.56c6.24,2.05 10.92,5.11 14.04,9.2c3.12,4.09 4.68,8.93 4.68,14.53c0,10.23 -3.71,18.45 -11.14,23.4c-7.42,4.95 -18.19,7.43 -32.28,7.43c-2.05,0 -4.22,-0.05 -6.54,-0.16c-2.32,-0.11 -4.66,-0.3 -7.02,-0.56c-2.37,-0.27 -4.74,-0.64 -7.1,-1.13c-2.37,-0.48 -4.58,-1.05 -6.62,-1.7c-5.16,-1.72 -7.75,-4.9 -7.75,-9.52l0,-79.59c0,-2.04 0.54,-3.6 1.61,-4.68c1.07,-1.07 2.58,-1.94 4.52,-2.58c3.66,-1.18 7.91,-2.02 12.75,-2.5c4.84,-0.48 9.9,-0.73 15.17,-0.73c13.02,0 23.08,2.23 30.19,6.7c7.12,4.46 10.67,11.38 10.67,20.74zm-54.56,14.85l16.3,0c5.81,0 10.14,-1.18 13,-3.55c2.85,-2.37 4.28,-5.65 4.28,-9.85c0,-8.5 -6.57,-12.75 -19.7,-12.75c-2.69,0 -5.24,0.11 -7.67,0.32c-2.42,0.22 -4.49,0.48 -6.21,0.81l0,25.02zm36.8,29.22c0,-4.3 -1.53,-7.69 -4.6,-10.17c-3.07,-2.47 -7.51,-3.71 -13.32,-3.71l-18.88,0l0,27.6c2.04,0.54 4.49,0.92 7.34,1.13c2.85,0.22 5.67,0.32 8.48,0.32c6.56,0 11.71,-1.15 15.42,-3.47c3.7,-2.32 5.56,-6.64 5.56,-11.7z" fill="#FFD200"/><path d="m310.77,30.01c10.55,0 18.97,2.26 25.27,6.78c6.3,4.52 9.44,11.52 9.44,20.99l0,37.44c0,2.58 -0.64,4.63 -1.94,6.14c-1.29,1.51 -2.91,2.85 -4.84,4.04c-3.01,1.83 -6.84,3.28 -11.46,4.36c-4.63,1.07 -9.9,1.62 -15.82,1.62c-10.76,0 -19.24,-2.07 -25.43,-6.22c-6.19,-4.14 -9.28,-10.36 -9.28,-18.65c0,-7.21 2.29,-12.88 6.86,-16.7c4.57,-3.82 11.22,-6.16 19.94,-7.02l22.11,-2.26l0,-2.91c0,-4.09 -1.48,-7.1 -4.44,-9.04c-2.96,-1.94 -7.13,-2.9 -12.51,-2.9c-4.2,0 -8.29,0.51 -12.27,1.53c-3.98,1.02 -7.54,2.29 -10.66,3.79c-1.18,-0.86 -2.18,-2.02 -2.99,-3.47c-0.8,-1.45 -1.21,-3.04 -1.21,-4.76c0,-2.15 0.51,-3.9 1.53,-5.25c1.02,-1.34 2.66,-2.55 4.92,-3.63c3.12,-1.29 6.67,-2.26 10.65,-2.9c4.01,-0.66 8.04,-0.98 12.13,-0.98zm0.65,65.85c3.12,0 5.97,-0.29 8.56,-0.89c2.58,-0.59 4.47,-1.32 5.65,-2.18l0,-18.07l-15.66,1.45c-4.3,0.43 -7.59,1.37 -9.85,2.82c-2.26,1.45 -3.39,3.89 -3.39,7.01c0,3.12 1.16,5.55 3.47,7.26c2.31,1.74 6.05,2.6 11.22,2.6z" fill="#FFD200"/><path d="m386.8,110.07c-0.97,0.21 -2.26,0.48 -3.87,0.81c-1.62,0.32 -3.45,0.48 -5.49,0.48c-3.77,0 -6.57,-0.7 -8.4,-2.1c-1.83,-1.4 -2.75,-3.87 -2.75,-7.43l0,-52.61c0,-2.8 0.65,-5.17 1.94,-7.1c1.29,-1.94 3.17,-3.66 5.65,-5.16c3.33,-2.04 7.45,-3.71 12.35,-5c4.89,-1.29 10.19,-1.94 15.9,-1.94c10.22,0 15.34,3.18 15.34,9.52c0,1.51 -0.24,2.93 -0.73,4.28c-0.48,1.35 -0.99,2.45 -1.53,3.31c-2.48,-0.54 -5.54,-0.81 -9.2,-0.81c-3.77,0 -7.32,0.43 -10.66,1.29c-3.34,0.86 -6.19,1.94 -8.56,3.23l0,59.23l0.01,0z" fill="#FFD200"/><path d="m468.32,46.31c-3.23,0 -6.21,0.54 -8.96,1.62c-2.75,1.08 -5.11,2.64 -7.11,4.68c-1.99,2.05 -3.58,4.58 -4.76,7.59c-1.19,3.01 -1.78,6.51 -1.78,10.49c0,7.97 2.1,14.28 6.3,18.32c4.2,4.04 9.63,6.05 16.3,6.05c3.77,0 7.02,-0.51 9.77,-1.53c2.74,-1.02 5.19,-2.13 7.35,-3.31c1.5,1.08 2.72,2.32 3.63,3.71c0.91,1.4 1.37,3.01 1.37,4.84c0,3.66 -2.16,6.67 -6.46,9.04c-4.3,2.37 -10.12,3.55 -17.43,3.55c-6.13,0 -11.76,-0.83 -16.87,-2.5c-5.11,-1.67 -9.5,-4.2 -13.16,-7.59c-3.66,-3.39 -6.49,-7.61 -8.48,-12.67c-1.99,-5.06 -2.99,-11.24 -2.99,-17.91c0,-6.78 1.07,-12.73 3.23,-17.84c2.15,-5.11 5.09,-9.36 8.8,-12.75c3.71,-3.39 8.04,-5.92 13,-7.59c4.95,-1.67 10.22,-2.5 15.82,-2.5c7.21,0 12.97,1.27 17.27,3.79c4.3,2.53 6.46,5.63 6.46,9.28c0,1.72 -0.46,3.29 -1.37,4.68c-0.91,1.4 -1.96,2.53 -3.15,3.39c-2.15,-1.18 -4.55,-2.28 -7.18,-3.31c-2.63,-1.02 -5.83,-1.53 -9.6,-1.53z" fill="#FFD200"/><path d="m537.58,30.01c10.55,0 18.97,2.26 25.27,6.78c6.3,4.52 9.44,11.52 9.44,20.99l0,37.44c0,2.58 -0.64,4.63 -1.94,6.14c-1.29,1.51 -2.91,2.85 -4.84,4.04c-3.01,1.83 -6.84,3.28 -11.46,4.36c-4.63,1.07 -9.9,1.62 -15.82,1.62c-10.76,0 -19.24,-2.07 -25.43,-6.22c-6.19,-4.14 -9.28,-10.36 -9.28,-18.65c0,-7.21 2.29,-12.88 6.86,-16.7c4.57,-3.82 11.22,-6.16 19.94,-7.02l22.11,-2.26l0,-2.91c0,-4.09 -1.48,-7.1 -4.44,-9.04c-2.96,-1.94 -7.13,-2.9 -12.51,-2.9c-4.2,0 -8.29,0.51 -12.27,1.53c-3.98,1.02 -7.54,2.29 -10.66,3.79c-1.18,-0.86 -2.18,-2.02 -2.99,-3.47c-0.8,-1.45 -1.21,-3.04 -1.21,-4.76c0,-2.15 0.51,-3.9 1.53,-5.25c1.02,-1.34 2.66,-2.55 4.92,-3.63c3.12,-1.29 6.67,-2.26 10.65,-2.9c4,-0.66 8.04,-0.98 12.13,-0.98zm0.64,65.85c3.12,0 5.97,-0.29 8.56,-0.89c2.58,-0.59 4.47,-1.32 5.65,-2.18l0,-18.07l-15.66,1.45c-4.3,0.43 -7.59,1.37 -9.85,2.82c-2.26,1.45 -3.39,3.89 -3.39,7.01c0,3.12 1.16,5.55 3.47,7.26c2.31,1.74 6.06,2.6 11.22,2.6z" fill="#FFD200"/></g><g><path d="m798.54,108.51l-178.43,15.64c-9.23,0.81 -16.79,-7.22 -15.43,-16.38l13.9,-93.73c1.04,-7.03 7.07,-12.23 14.18,-12.23l164.53,0c7.92,0 14.33,6.42 14.33,14.33l0,78.09c0,7.43 -5.68,13.63 -13.08,14.28z" fill="#AA1E3C"/><g><path d="m636.89,71.4c0,-1.69 0.52,-3.11 1.57,-4.27c1.05,-1.16 2.51,-1.74 4.37,-1.74c1.82,0 3.27,0.58 4.34,1.74c1.07,1.16 1.6,2.58 1.6,4.27c0,1.69 -0.53,3.12 -1.6,4.27c-1.07,1.16 -2.52,1.73 -4.34,1.73c-1.87,0 -3.33,-0.58 -4.37,-1.73s-1.57,-2.57 -1.57,-4.27z" fill="#FFFFFF"/><path d="m675.79,51.39c-2.4,0 -4.45,0.77 -6.14,2.3c-1.69,1.53 -2.54,3.79 -2.54,6.78c0,2.98 0.81,5.2 2.44,6.67c1.63,1.47 3.68,2.2 6.18,2.2c1.42,0 2.68,-0.19 3.77,-0.57c1.09,-0.38 2.01,-0.77 2.77,-1.17c0.76,0.58 1.35,1.19 1.77,1.84c0.42,0.65 0.63,1.43 0.63,2.37c0,1.69 -0.89,3.05 -2.67,4.07c-1.78,1.02 -4.25,1.54 -7.41,1.54c-2.67,0 -5.11,-0.36 -7.31,-1.07c-2.2,-0.71 -4.08,-1.78 -5.64,-3.2c-1.56,-1.42 -2.76,-3.19 -3.6,-5.31c-0.85,-2.11 -1.27,-4.57 -1.27,-7.37c0,-2.89 0.47,-5.41 1.4,-7.54s2.2,-3.92 3.81,-5.34c1.6,-1.42 3.47,-2.49 5.61,-3.2c2.13,-0.71 4.38,-1.07 6.74,-1.07c3.07,0 5.48,0.56 7.24,1.67c1.76,1.11 2.64,2.52 2.64,4.21c0,0.8 -0.19,1.54 -0.57,2.2c-0.38,0.67 -0.84,1.25 -1.37,1.74c-0.8,-0.44 -1.75,-0.84 -2.84,-1.2c-1.1,-0.37 -2.31,-0.55 -3.64,-0.55z" fill="#FFFFFF"/><path d="m725.59,60.33c0,2.63 -0.4,5 -1.2,7.11c-0.8,2.11 -1.95,3.91 -3.44,5.37c-1.49,1.47 -3.28,2.6 -5.37,3.4c-2.09,0.8 -4.43,1.2 -7.01,1.2s-4.93,-0.39 -7.04,-1.17c-2.11,-0.78 -3.92,-1.9 -5.41,-3.37c-1.49,-1.47 -2.63,-3.26 -3.44,-5.37c-0.8,-2.11 -1.2,-4.51 -1.2,-7.18c0,-2.58 0.41,-4.93 1.23,-7.04c0.82,-2.11 1.98,-3.91 3.47,-5.37c1.49,-1.47 3.29,-2.6 5.41,-3.4c2.11,-0.8 4.44,-1.2 6.97,-1.2c2.54,0 4.85,0.4 6.94,1.2c2.09,0.8 3.88,1.95 5.38,3.44c1.49,1.49 2.65,3.28 3.47,5.37c0.82,2.1 1.24,4.43 1.24,7.01zm-17.03,-9.01c-2.09,0 -3.71,0.78 -4.87,2.34c-1.16,1.56 -1.73,3.78 -1.73,6.67c0,2.98 0.57,5.24 1.7,6.78c1.14,1.53 2.77,2.3 4.91,2.3c2.14,0 3.77,-0.78 4.91,-2.34c1.14,-1.56 1.7,-3.8 1.7,-6.74c0,-2.85 -0.58,-5.06 -1.74,-6.64c-1.16,-1.58 -2.78,-2.37 -4.88,-2.37z" fill="#FFFFFF"/><path d="m781.38,76.89c-0.49,0.13 -1.14,0.25 -1.94,0.37s-1.69,0.17 -2.67,0.17c-2,0 -3.44,-0.32 -4.31,-0.97c-0.87,-0.65 -1.3,-1.9 -1.3,-3.77l0,-17.1c0,-1.47 -0.4,-2.55 -1.2,-3.24c-0.8,-0.69 -1.89,-1.03 -3.27,-1.03c-0.89,0 -1.72,0.16 -2.5,0.47c-0.78,0.31 -1.48,0.71 -2.11,1.2c0.05,0.22 0.08,0.45 0.1,0.67c0.02,0.22 0.03,0.45 0.03,0.67l0,22.56c-0.49,0.13 -1.14,0.25 -1.94,0.37s-1.69,0.17 -2.67,0.17c-2,0 -3.44,-0.32 -4.31,-0.97c-0.87,-0.65 -1.3,-1.9 -1.3,-3.77l0,-17.1c0,-1.47 -0.44,-2.55 -1.33,-3.24c-0.89,-0.69 -1.98,-1.03 -3.27,-1.03c-0.94,0 -1.78,0.15 -2.54,0.43c-0.75,0.29 -1.38,0.57 -1.87,0.83l0,24.3c-0.45,0.13 -1.07,0.25 -1.87,0.37s-1.69,0.17 -2.67,0.17c-2,0 -3.45,-0.32 -4.34,-0.97c-0.89,-0.65 -1.34,-1.9 -1.34,-3.77l0,-21.16c0,-1.16 0.24,-2.09 0.73,-2.8c0.49,-0.71 1.18,-1.38 2.07,-2c1.47,-1.02 3.28,-1.85 5.44,-2.47c2.16,-0.62 4.42,-0.94 6.78,-0.94c1.87,0 3.64,0.26 5.31,0.77c1.67,0.51 3.19,1.3 4.57,2.37c1.34,-0.89 2.85,-1.64 4.54,-2.24c1.69,-0.6 3.69,-0.9 6.01,-0.9c1.73,0 3.39,0.21 4.97,0.63c1.58,0.42 2.97,1.11 4.17,2.07c1.2,0.96 2.17,2.2 2.91,3.74c0.73,1.54 1.1,3.39 1.1,5.57l0,21.57l0.02,0z" fill="#FFFFFF"/></g></g></g></g></svg>